<svg width="70" height="60" viewBox="0 0 70 60" fill="none" xmlns="http://www.w3.org/2000/svg">
<g clip-path="url(#clip0_2_20)">
<path d="M33.4053 29.0575L32.44 30.0229C32.0211 30.4418 31.8025 30.9882 31.8025 31.5711C31.8025 32.1539 32.0393 32.7186 32.44 33.1193L33.4053 34.0846C33.4741 34.1548 33.5563 34.2103 33.6471 34.2479C33.7379 34.2855 33.8353 34.3043 33.9336 34.3032H34.7168C35.1175 34.3032 35.4453 34.6311 35.4453 35.0318V39.0207C35.4453 39.4214 35.7732 39.7493 36.1739 39.7493H36.9571C37.0554 39.7503 37.1528 39.7315 37.2436 39.694C37.3343 39.6564 37.4166 39.6009 37.4853 39.5307L38.2321 38.7839C38.7786 38.2375 39.0882 37.4907 39.0882 36.7075V34.4489C39.0882 34.3396 39.1064 34.2304 39.1611 34.1211L40.8186 30.7879C40.8732 30.6786 40.8914 30.5693 40.8914 30.46V29.5493C40.8914 29.1486 41.2193 28.8207 41.62 28.8207H41.9661C42.3668 28.8207 42.6946 29.1486 42.6946 29.5493V29.8954C42.6946 30.2961 43.0225 30.6239 43.4232 30.6239H43.7693C44.17 30.6239 44.4978 30.2961 44.4978 29.8954V29.5493C44.4978 29.1486 44.8257 28.8207 45.2264 28.8207H45.5725C45.9732 28.8207 46.3011 29.1486 46.3011 29.5493V29.8954C46.3011 30.2961 46.6289 30.6239 47.0296 30.6239H49.0696C49.3611 30.6239 49.6343 30.4418 49.7436 30.1686L51.3464 26.1796C51.3911 26.0692 51.408 25.9494 51.3957 25.8309C51.3833 25.7123 51.342 25.5986 51.2755 25.4998C51.209 25.4009 51.1192 25.3198 51.0141 25.2637C50.909 25.2076 50.7917 25.1781 50.6725 25.1779C50.2718 25.1779 49.9439 24.85 49.9439 24.4493V22.2818C49.9439 21.8811 50.2718 21.5532 50.6725 21.5532H51.0186C51.4193 21.5532 51.7471 21.8811 51.7471 22.2818V22.4639C51.7471 22.9739 52.1478 23.3746 52.6578 23.3746C53.1678 23.3746 53.5686 22.9739 53.5686 22.4639V18.9304C53.5686 17.3639 52.2936 16.1071 50.7453 16.1071H50.6725C50.2718 16.1071 49.9439 16.435 49.9439 16.8357V17.1818C49.9439 17.5825 49.6161 17.9104 49.2153 17.9104H47.0478C46.6471 17.9104 46.3193 17.5825 46.3193 17.1818C46.3193 16.5807 45.8275 16.0889 45.2264 16.0889H44.4978C43.4961 16.0889 42.6764 16.9086 42.6764 17.9104V17.965C42.6764 18.1654 42.5853 18.3657 42.4396 18.5114L39.2521 21.3711C39.1246 21.4986 38.9425 21.5532 38.7603 21.5532H36.1375C35.7368 21.5532 35.4089 21.8811 35.4089 22.2818V22.6279C35.4089 23.0286 35.0811 23.3564 34.6803 23.3564H34.3343C33.9336 23.3564 33.6057 23.6843 33.6057 24.085V26.2525C33.6057 26.6532 33.9336 26.9811 34.3343 26.9811H34.6803C35.0811 26.9811 35.4089 27.3089 35.4089 27.7096V28.0557C35.4089 28.4564 35.0811 28.7843 34.6803 28.7843H33.8971L33.8461 28.8061C33.6968 28.8735 33.5365 28.9428 33.4053 29.0575ZM25.4275 41.5889C25.9375 41.5889 26.3382 41.1882 26.3382 40.6782V39.8586C26.3382 38.6746 26.9939 37.6182 28.0503 37.09L29.1614 36.5254C29.6532 36.2704 29.9811 35.7604 29.9811 35.2139C29.9811 34.6493 29.6714 34.1393 29.1614 33.9025L27.0303 32.8461C26.575 32.6093 26.065 32.5 25.555 32.5H24.7536C24.6793 32.5004 24.6056 32.4861 24.5369 32.458C24.4681 32.4298 24.4056 32.3884 24.3528 32.3361L21.0378 29.0211C20.9855 28.9683 20.9441 28.9058 20.9159 28.837C20.8878 28.7683 20.8735 28.6947 20.8739 28.6204V27.6004C20.8739 27.2907 21.1289 27.0357 21.4386 27.0357H22.1307C22.4403 27.0357 22.6953 27.2907 22.6953 27.6004V27.9464C22.6953 28.4564 23.0961 28.8571 23.6061 28.8571C24.1161 28.8571 24.5168 28.4564 24.5168 27.9464V27.6004C24.5168 27.2907 24.7718 27.0357 25.0814 27.0357C25.8828 27.0357 26.6661 26.7079 27.2307 26.1432L27.7589 25.615C27.9775 25.3964 27.9775 25.0321 27.7589 24.8136L26.5021 23.5568C26.4498 23.5041 26.4084 23.4415 26.3802 23.3728C26.3521 23.304 26.3378 23.2304 26.3382 23.1561V22.4821C26.3382 21.9721 25.9375 21.5714 25.4275 21.5714C24.9175 21.5714 24.5168 21.9721 24.5168 22.4821C24.5168 22.9921 24.1161 23.3929 23.6061 23.3929C23.0961 23.3929 22.6953 22.9921 22.6953 22.4821V22.1361C22.6953 21.8264 22.9503 21.5714 23.26 21.5714C23.5878 21.5714 23.8428 21.2982 23.8246 20.9886L23.7882 20.3511C23.77 20.0232 24.025 19.7682 24.3528 19.7682H25.7736C26.0832 19.7682 26.3382 19.5132 26.3382 19.2036V18.8575C26.3382 18.3475 26.7389 17.9468 27.2489 17.9468C27.7589 17.9468 28.1596 18.3475 28.1596 18.8575V22.5004C28.1596 23.0104 28.5603 23.4111 29.0703 23.4111C29.5803 23.4111 29.9811 23.0104 29.9811 22.5004V21.8264C29.9811 21.6807 30.0357 21.535 30.145 21.4257L30.8918 20.6789C31.4746 20.0961 31.8025 19.3129 31.8025 18.4932C31.8025 17.1818 30.7461 16.1254 29.4346 16.1254H26.5203C25.2453 16.1254 24.025 16.6536 23.1507 17.5825L22.0214 18.8029C21.4568 19.4221 20.6553 19.7682 19.8175 19.7682H19.6353C19.3257 19.7682 19.0707 19.5132 19.0707 19.2036C19.0707 18.5114 18.5061 17.9468 17.8139 17.9468H16.6846C15.9925 17.9468 15.4278 18.5114 15.4278 19.2036V19.8775C15.4278 20.9704 14.9907 22.0268 14.2257 22.7918L13.7886 23.2289C13.7362 23.2817 13.6948 23.3442 13.6667 23.4129C13.6385 23.4817 13.6242 23.5554 13.6246 23.6296V23.8664C13.6246 24.3764 14.2257 24.6132 14.59 24.2671L16.885 21.9721C17.1218 21.7354 17.4496 21.5896 17.7957 21.5896C18.1563 21.5896 18.0143 21.739 17.7884 21.9813C17.568 22.2144 17.2675 22.5331 17.2675 22.8829V27.1814C17.2675 27.9264 18.3148 28.644 19.2237 29.2688C19.6517 29.5602 20.047 29.8334 20.2911 30.0775L22.5678 32.3543C22.6771 32.4636 22.7318 32.6093 22.7318 32.755V34.795C22.7318 35.6693 23.0778 36.5254 23.6971 37.1446L24.3893 37.8368C24.4986 37.9461 24.5532 38.0918 24.5532 38.2375V40.7329C24.5168 41.1882 24.9357 41.5889 25.4275 41.5889Z" fill="black"/>
<path d="M46.9204 34.9772C46.5743 34.54 46.3739 33.9936 46.3739 33.4289V33.0464C46.3739 32.7368 46.6289 32.4818 46.9386 32.4454H47.6307C47.9404 32.4454 48.1954 32.7004 48.1954 33.01C48.1954 33.5382 48.8329 33.775 49.1789 33.3925L49.8529 32.6457C49.9621 32.5364 50.1079 32.4636 50.2718 32.4636H51.8382C52.84 32.4636 53.6596 33.2832 53.6596 34.285V35.815C53.6596 36.1793 53.3318 36.4343 52.9857 36.3614L52.585 36.2704C52.3736 36.2232 52.1845 36.1056 52.0488 35.9368C51.9131 35.768 51.8388 35.558 51.8382 35.3414C51.8382 34.7768 51.3464 34.3397 50.7818 34.3943L50.5086 34.4307C50.2354 34.4672 50.0168 34.7039 50.0168 34.9954V35.6693C50.0168 35.9243 49.8346 36.1611 49.5796 36.2157C48.7418 36.4161 47.8493 36.1064 47.3029 35.4325L46.9204 34.9772ZM48.1954 40.6964C48.1954 41.2064 48.5961 41.6072 49.1061 41.6072H52.7489C53.2589 41.6072 53.6596 41.2064 53.6596 40.6964V38.9661C53.6596 38.6956 53.5522 38.4361 53.3609 38.2448C53.1696 38.0535 52.9102 37.9461 52.6396 37.9461H49.7071C48.8693 37.9461 48.1954 38.6382 48.1954 39.4761V40.6964Z" fill="black"/>
<path d="M10.9471 10.3514L22.6954 7L35.4636 10.6429L48.1954 7L60.0711 10.3514C60.6175 10.4971 61 10.9889 61 11.5536V51.2971C61 52.0986 60.235 52.6996 59.4518 52.4993L48.2136 48.8983L35.4636 52.5357L22.6954 48.8746L11.5482 52.4993C11.3651 52.5451 11.1739 52.5487 10.9891 52.5098C10.8044 52.4709 10.6309 52.3905 10.4818 52.2747C10.3326 52.1589 10.2118 52.0108 10.1283 51.8414C10.0449 51.672 10.001 51.4859 10 51.2971V11.5536C10 10.9889 10.4007 10.4971 10.9471 10.3514ZM35.4636 48.8765L48.2281 45.2518V45.2974L56.6832 47.8729C57.4846 48.0914 58.2679 47.4904 58.2679 46.6707V14.2857C58.2679 13.7211 57.8854 13.2293 57.3389 13.0836L48.1954 10.6793V10.6574L35.4636 14.2384V14.2438L22.6954 10.6647V10.6574L13.5573 13.0836C13.2907 13.1527 13.0544 13.3081 12.8854 13.5256C12.7164 13.743 12.6241 14.0103 12.6229 14.2857V46.6343C12.6229 47.4539 13.4097 48.055 14.2166 47.8364L22.6954 45.2682L35.4636 48.8819V48.8765Z" fill="black"/>
<mask id="path-4-outside-1_2_20" maskUnits="userSpaceOnUse" x="45" y="32" width="23" height="23" fill="black">
<rect fill="white" x="45" y="32" width="23" height="23"/>
<path fill-rule="evenodd" clip-rule="evenodd" d="M65.7711 35.556C66.3543 34.9677 66.3502 34.0179 65.7619 33.4347C65.1735 32.8515 64.2238 32.8556 63.6406 33.444L56.103 41.0477L48.5654 33.444C47.9822 32.8556 47.0324 32.8515 46.4441 33.4347C45.8558 34.0179 45.8516 34.9677 46.4348 35.556L53.9909 43.1784L46.4347 50.8008C45.8515 51.3892 45.8556 52.3389 46.444 52.9221C47.0323 53.5054 47.9821 53.5012 48.5653 52.9129L56.103 45.309L63.6407 52.9129C64.2239 53.5012 65.1736 53.5054 65.762 52.9221C66.3503 52.3389 66.3545 51.3892 65.7712 50.8008L58.2151 43.1784L65.7711 35.556Z"/>
</mask>
<path fill-rule="evenodd" clip-rule="evenodd" d="M65.7711 35.556C66.3543 34.9677 66.3502 34.0179 65.7619 33.4347C65.1735 32.8515 64.2238 32.8556 63.6406 33.444L56.103 41.0477L48.5654 33.444C47.9822 32.8556 47.0324 32.8515 46.4441 33.4347C45.8558 34.0179 45.8516 34.9677 46.4348 35.556L53.9909 43.1784L46.4347 50.8008C45.8515 51.3892 45.8556 52.3389 46.444 52.9221C47.0323 53.5054 47.9821 53.5012 48.5653 52.9129L56.103 45.309L63.6407 52.9129C64.2239 53.5012 65.1736 53.5054 65.762 52.9221C66.3503 52.3389 66.3545 51.3892 65.7712 50.8008L58.2151 43.1784L65.7711 35.556Z" fill="#EC3A3A"/>
<path d="M65.7619 33.4347L65.0578 34.1449L65.0578 34.1449L65.7619 33.4347ZM65.7711 35.556L65.0609 34.852L65.0609 34.852L65.7711 35.556ZM63.6406 33.444L62.9304 32.74L62.9304 32.74L63.6406 33.444ZM56.103 41.0477L55.3928 41.7517L56.103 42.4682L56.8132 41.7517L56.103 41.0477ZM48.5654 33.444L49.2756 32.74L49.2756 32.74L48.5654 33.444ZM46.4441 33.4347L47.1481 34.1449L47.1481 34.1449L46.4441 33.4347ZM46.4348 35.556L47.145 34.852L47.145 34.852L46.4348 35.556ZM53.9909 43.1784L54.7011 43.8824L55.3989 43.1784L54.7011 42.4744L53.9909 43.1784ZM46.4347 50.8008L45.7245 50.0968L45.7245 50.0968L46.4347 50.8008ZM48.5653 52.9129L47.8551 52.2089L47.8551 52.2089L48.5653 52.9129ZM56.103 45.309L56.8132 44.605L56.103 43.8886L55.3928 44.605L56.103 45.309ZM63.6407 52.9129L64.3509 52.2089L64.3509 52.2089L63.6407 52.9129ZM65.7712 50.8008L66.4814 50.0968L66.4814 50.0968L65.7712 50.8008ZM58.2151 43.1784L57.5049 42.4744L56.807 43.1784L57.5049 43.8824L58.2151 43.1784ZM65.0578 34.1449C65.254 34.3393 65.2553 34.6559 65.0609 34.852L66.4813 36.26C67.4534 35.2795 67.4464 33.6966 66.4659 32.7245L65.0578 34.1449ZM64.3507 34.148C64.5452 33.9519 64.8617 33.9505 65.0578 34.1449L66.4659 32.7245C65.4853 31.7525 63.9024 31.7594 62.9304 32.74L64.3507 34.148ZM56.8132 41.7517L64.3507 34.148L62.9304 32.74L55.3928 40.3437L56.8132 41.7517ZM56.8132 40.3437L49.2756 32.74L47.8552 34.148L55.3928 41.7517L56.8132 40.3437ZM49.2756 32.74C48.3036 31.7594 46.7207 31.7525 45.7401 32.7245L47.1481 34.1449C47.3442 33.9505 47.6608 33.9519 47.8552 34.148L49.2756 32.74ZM45.7401 32.7245C44.7595 33.6966 44.7526 35.2795 45.7246 36.26L47.145 34.852C46.9506 34.6559 46.952 34.3393 47.1481 34.1449L45.7401 32.7245ZM45.7246 36.26L53.2807 43.8824L54.7011 42.4744L47.145 34.852L45.7246 36.26ZM47.1449 51.5049L54.7011 43.8824L53.2807 42.4744L45.7245 50.0968L47.1449 51.5049ZM47.148 52.212C46.9519 52.0176 46.9505 51.701 47.1449 51.5049L45.7245 50.0968C44.7525 51.0774 44.7594 52.6603 45.74 53.6323L47.148 52.212ZM47.8551 52.2089C47.6607 52.405 47.3441 52.4064 47.148 52.212L45.74 53.6323C46.7205 54.6044 48.3034 54.5975 49.2755 53.6169L47.8551 52.2089ZM55.3928 44.605L47.8551 52.2089L49.2755 53.6169L56.8132 46.013L55.3928 44.605ZM55.3928 46.013L62.9305 53.6169L64.3509 52.2089L56.8132 44.605L55.3928 46.013ZM62.9305 53.6169C63.9025 54.5975 65.4854 54.6044 66.466 53.6323L65.058 52.212C64.8619 52.4064 64.5453 52.405 64.3509 52.2089L62.9305 53.6169ZM66.466 53.6323C67.4466 52.6603 67.4535 51.0774 66.4814 50.0968L65.0611 51.5049C65.2555 51.701 65.2541 52.0176 65.058 52.212L66.466 53.6323ZM66.4814 50.0968L58.9253 42.4744L57.5049 43.8824L65.0611 51.5049L66.4814 50.0968ZM65.0609 34.852L57.5049 42.4744L58.9253 43.8824L66.4813 36.26L65.0609 34.852Z" fill="white" mask="url(#path-4-outside-1_2_20)"/>
</g>
<defs>
<clipPath id="clip0_2_20">
<rect width="70" height="60" fill="white"/>
</clipPath>
</defs>
</svg>
