<svg width="94" height="94" viewBox="0 0 94 94" fill="none" xmlns="http://www.w3.org/2000/svg">
<mask id="path-1-outside-1_314_8" maskUnits="userSpaceOnUse" x="0" y="0" width="94" height="94" fill="black">
<rect fill="white" width="94" height="94"/>
<path fill-rule="evenodd" clip-rule="evenodd" d="M44.1667 2C42.5098 2 41.1667 3.34314 41.1667 5V17.4083C37.3368 18.135 33.7587 19.5636 30.5738 21.5539L21.3032 12.3684C20.1263 11.2022 18.2181 11.2022 17.0411 12.3684L12.4644 16.9031C11.2874 18.0692 11.2874 19.9599 12.4644 21.1261L21.5633 30.1415C19.3635 33.316 17.7534 36.923 16.8893 40.8073H5C3.34315 40.8073 2 42.1505 2 43.8073V50.1926C2 51.8495 3.34314 53.1926 5 53.1926H16.7177C17.465 57.0594 18.948 60.6673 21.0167 63.8677L12.4644 72.3416C11.2874 73.5077 11.2874 75.3985 12.4644 76.5646L17.0411 81.0993C18.2181 82.2655 20.1263 82.2655 21.3032 81.0993L29.7449 72.7351C33.1329 75.006 37.0009 76.6269 41.1667 77.4173V89C41.1667 90.6569 42.5098 92 44.1667 92H50.6667C52.3235 92 53.6667 90.6569 53.6667 89V77.2473C57.3851 76.4352 60.8517 74.9581 63.9329 72.9482L72.1595 81.0993C73.3365 82.2655 75.2447 82.2655 76.4217 81.0993L80.9984 76.5647C82.1753 75.3985 82.1753 73.5078 80.9984 72.3416L72.7717 64.1904C74.9511 60.9106 76.5098 57.19 77.2823 53.1926H89C90.6568 53.1926 92 51.8495 92 50.1926V43.8073C92 42.1505 90.6569 40.8073 89 40.8073H77.1107C76.218 36.7944 74.529 33.0775 72.2163 29.8277L80.9984 21.1262C82.1753 19.96 82.1753 18.0693 80.9984 16.9031L76.4217 12.3684C75.2447 11.2023 73.3365 11.2022 72.1595 12.3684L63.095 21.3498C60.2281 19.608 57.0518 18.3176 53.6667 17.5784V5C53.6667 3.34315 52.3235 2 50.6667 2H44.1667ZM47.4167 67.2294C58.6925 67.2294 67.8333 58.1724 67.8333 47C67.8333 35.8276 58.6925 26.7706 47.4167 26.7706C36.1409 26.7706 27 35.8276 27 47C27 58.1724 36.1409 67.2294 47.4167 67.2294Z"/>
</mask>
<path fill-rule="evenodd" clip-rule="evenodd" d="M44.1667 2C42.5098 2 41.1667 3.34314 41.1667 5V17.4083C37.3368 18.135 33.7587 19.5636 30.5738 21.5539L21.3032 12.3684C20.1263 11.2022 18.2181 11.2022 17.0411 12.3684L12.4644 16.9031C11.2874 18.0692 11.2874 19.9599 12.4644 21.1261L21.5633 30.1415C19.3635 33.316 17.7534 36.923 16.8893 40.8073H5C3.34315 40.8073 2 42.1505 2 43.8073V50.1926C2 51.8495 3.34314 53.1926 5 53.1926H16.7177C17.465 57.0594 18.948 60.6673 21.0167 63.8677L12.4644 72.3416C11.2874 73.5077 11.2874 75.3985 12.4644 76.5646L17.0411 81.0993C18.2181 82.2655 20.1263 82.2655 21.3032 81.0993L29.7449 72.7351C33.1329 75.006 37.0009 76.6269 41.1667 77.4173V89C41.1667 90.6569 42.5098 92 44.1667 92H50.6667C52.3235 92 53.6667 90.6569 53.6667 89V77.2473C57.3851 76.4352 60.8517 74.9581 63.9329 72.9482L72.1595 81.0993C73.3365 82.2655 75.2447 82.2655 76.4217 81.0993L80.9984 76.5647C82.1753 75.3985 82.1753 73.5078 80.9984 72.3416L72.7717 64.1904C74.9511 60.9106 76.5098 57.19 77.2823 53.1926H89C90.6568 53.1926 92 51.8495 92 50.1926V43.8073C92 42.1505 90.6569 40.8073 89 40.8073H77.1107C76.218 36.7944 74.529 33.0775 72.2163 29.8277L80.9984 21.1262C82.1753 19.96 82.1753 18.0693 80.9984 16.9031L76.4217 12.3684C75.2447 11.2023 73.3365 11.2022 72.1595 12.3684L63.095 21.3498C60.2281 19.608 57.0518 18.3176 53.6667 17.5784V5C53.6667 3.34315 52.3235 2 50.6667 2H44.1667ZM47.4167 67.2294C58.6925 67.2294 67.8333 58.1724 67.8333 47C67.8333 35.8276 58.6925 26.7706 47.4167 26.7706C36.1409 26.7706 27 35.8276 27 47C27 58.1724 36.1409 67.2294 47.4167 67.2294Z" fill="white"/>
<path d="M41.1667 17.4083L41.5395 19.3733L43.1667 19.0646V17.4083H41.1667ZM30.5738 21.5539L29.1662 22.9746L30.291 24.0891L31.6338 23.25L30.5738 21.5539ZM21.3032 12.3684L19.8956 13.7891L19.8956 13.7891L21.3032 12.3684ZM17.0411 12.3684L15.6334 10.9476L15.6334 10.9476L17.0411 12.3684ZM12.4644 16.9031L11.0567 15.4823L11.0567 15.4823L12.4644 16.9031ZM12.4644 21.1261L11.0567 22.5468L11.0567 22.5468L12.4644 21.1261ZM21.5633 30.1415L23.2072 31.2807L24.1628 29.9017L22.971 28.7208L21.5633 30.1415ZM16.8893 40.8073V42.8073H18.4933L18.8416 41.2416L16.8893 40.8073ZM16.7177 53.1926L18.6814 52.8132L18.3682 51.1926H16.7177V53.1926ZM21.0167 63.8677L22.4244 65.2884L23.5778 64.1456L22.6964 62.782L21.0167 63.8677ZM12.4644 72.3416L11.0567 70.9209L11.0567 70.9209L12.4644 72.3416ZM12.4644 76.5646L13.8721 75.1439L13.8721 75.1439L12.4644 76.5646ZM17.0411 81.0993L15.6334 82.52L15.6334 82.52L17.0411 81.0993ZM21.3032 81.0993L22.7109 82.52L22.7109 82.52L21.3032 81.0993ZM29.7449 72.7351L30.8585 71.0738L29.4994 70.1628L28.3372 71.3144L29.7449 72.7351ZM41.1667 77.4173H43.1667V75.7611L41.5395 75.4523L41.1667 77.4173ZM53.6667 77.2473L53.24 75.2933L51.6667 75.6369V77.2473H53.6667ZM63.9329 72.9482L65.3406 71.5275L64.1931 70.3905L62.8402 71.2731L63.9329 72.9482ZM72.1595 81.0993L73.5672 79.6786L73.5672 79.6786L72.1595 81.0993ZM76.4217 81.0993L75.014 79.6786L75.014 79.6786L76.4217 81.0993ZM80.9984 76.5647L79.5907 75.1439L79.5907 75.1439L80.9984 76.5647ZM80.9984 72.3416L82.4061 70.9209L82.4061 70.9209L80.9984 72.3416ZM72.7717 64.1904L71.1059 63.0836L70.1957 64.4535L71.3641 65.6111L72.7717 64.1904ZM77.2823 53.1926V51.1926H75.6318L75.3186 52.8132L77.2823 53.1926ZM77.1107 40.8073L75.1584 41.2416L75.5067 42.8073H77.1107V40.8073ZM72.2163 29.8277L70.8086 28.4069L69.6016 29.6029L70.5868 30.9873L72.2163 29.8277ZM80.9984 21.1262L82.4061 22.5469L82.4061 22.5469L80.9984 21.1262ZM80.9984 16.9031L79.5907 18.3238L79.5907 18.3238L80.9984 16.9031ZM76.4217 12.3684L75.014 13.7891L75.014 13.7891L76.4217 12.3684ZM72.1595 12.3684L70.7519 10.9477L70.7519 10.9477L72.1595 12.3684ZM63.095 21.3498L62.0565 23.0591L63.3923 23.8707L64.5026 22.7705L63.095 21.3498ZM53.6667 17.5784H51.6667V19.1887L53.24 19.5323L53.6667 17.5784ZM43.1667 5C43.1667 4.44772 43.6144 4 44.1667 4V0C41.4052 0 39.1667 2.23857 39.1667 5H43.1667ZM43.1667 17.4083V5H39.1667V17.4083H43.1667ZM31.6338 23.25C34.6122 21.3886 37.958 20.0528 41.5395 19.3733L40.7939 15.4434C36.7157 16.2171 32.9051 17.7386 29.5139 19.8579L31.6338 23.25ZM19.8956 13.7891L29.1662 22.9746L31.9815 20.1332L22.7109 10.9476L19.8956 13.7891ZM18.4488 13.7891C18.8462 13.3953 19.4981 13.3953 19.8956 13.7891L22.7109 10.9476C20.7544 9.0091 17.5899 9.00911 15.6334 10.9476L18.4488 13.7891ZM13.8721 18.3238L18.4488 13.7891L15.6334 10.9476L11.0567 15.4823L13.8721 18.3238ZM13.8721 19.7054C13.4849 19.3217 13.4849 18.7074 13.8721 18.3238L11.0567 15.4823C9.09001 17.431 9.09 20.5981 11.0567 22.5468L13.8721 19.7054ZM22.971 28.7208L13.8721 19.7054L11.0567 22.5468L20.1556 31.5622L22.971 28.7208ZM18.8416 41.2416C19.6481 37.6161 21.1512 34.2476 23.2072 31.2807L19.9194 29.0024C17.5758 32.3844 15.8587 36.2299 14.937 40.373L18.8416 41.2416ZM5 42.8073H16.8893V38.8073H5V42.8073ZM4 43.8073C4 43.255 4.44772 42.8073 5 42.8073V38.8073C2.23857 38.8073 0 41.0459 0 43.8073H4ZM4 50.1926V43.8073H0V50.1926H4ZM5 51.1926C4.44772 51.1926 4 50.7449 4 50.1926H0C0 52.9541 2.23857 55.1926 5 55.1926V51.1926ZM16.7177 51.1926H5V55.1926H16.7177V51.1926ZM22.6964 62.782C20.7632 59.7914 19.3789 56.4225 18.6814 52.8132L14.754 53.5721C15.5511 57.6964 17.1327 61.5432 19.3371 64.9534L22.6964 62.782ZM13.8721 73.7623L22.4244 65.2884L19.6091 62.447L11.0567 70.9209L13.8721 73.7623ZM13.8721 75.1439C13.4849 74.7603 13.4849 74.1459 13.8721 73.7623L11.0567 70.9209C9.09001 72.8695 9.09001 76.0367 11.0567 77.9853L13.8721 75.1439ZM18.4488 79.6786L13.8721 75.1439L11.0567 77.9853L15.6334 82.52L18.4488 79.6786ZM19.8956 79.6786C19.4981 80.0724 18.8462 80.0724 18.4488 79.6786L15.6334 82.52C17.5899 84.4586 20.7544 84.4586 22.7109 82.52L19.8956 79.6786ZM28.3372 71.3144L19.8956 79.6786L22.7109 82.52L31.1526 74.1558L28.3372 71.3144ZM41.5395 75.4523C37.6439 74.7133 34.0271 73.1976 30.8585 71.0738L28.6313 74.3964C32.2386 76.8143 36.3579 78.5406 40.7939 79.3822L41.5395 75.4523ZM43.1667 89V77.4173H39.1667V89H43.1667ZM44.1667 90C43.6144 90 43.1667 89.5523 43.1667 89H39.1667C39.1667 91.7614 41.4052 94 44.1667 94V90ZM50.6667 90H44.1667V94H50.6667V90ZM51.6667 89C51.6667 89.5523 51.219 90 50.6667 90V94C53.4281 94 55.6667 91.7614 55.6667 89H51.6667ZM51.6667 77.2473V89H55.6667V77.2473H51.6667ZM62.8402 71.2731C59.9585 73.1528 56.717 74.534 53.24 75.2933L54.0934 79.2012C58.0533 78.3365 61.7449 76.7633 65.0256 74.6233L62.8402 71.2731ZM73.5672 79.6786L65.3406 71.5275L62.5252 74.3689L70.7519 82.5201L73.5672 79.6786ZM75.014 79.6786C74.6166 80.0724 73.9647 80.0724 73.5672 79.6786L70.7519 82.5201C72.7084 84.4586 75.8729 84.4586 77.8294 82.5201L75.014 79.6786ZM79.5907 75.1439L75.014 79.6786L77.8294 82.5201L82.4061 77.9854L79.5907 75.1439ZM79.5907 73.7623C79.9779 74.146 79.9779 74.7603 79.5907 75.1439L82.4061 77.9854C84.3728 76.0367 84.3728 72.8696 82.4061 70.9209L79.5907 73.7623ZM71.3641 65.6111L79.5907 73.7623L82.4061 70.9209L74.1794 62.7697L71.3641 65.6111ZM75.3186 52.8132C74.5976 56.5443 73.1425 60.0186 71.1059 63.0836L74.4375 65.2973C76.7596 61.8026 78.422 57.8357 79.246 53.5721L75.3186 52.8132ZM89 51.1926H77.2823V55.1926H89V51.1926ZM90 50.1926C90 50.7449 89.5523 51.1926 89 51.1926V55.1926C91.7614 55.1926 94 52.9541 94 50.1926H90ZM90 43.8073V50.1926H94V43.8073H90ZM89 42.8073C89.5523 42.8073 90 43.255 90 43.8073H94C94 41.0459 91.7614 38.8073 89 38.8073V42.8073ZM77.1107 42.8073H89V38.8073H77.1107V42.8073ZM70.5868 30.9873C72.7485 34.0248 74.3252 37.4961 75.1584 41.2416L79.063 40.373C78.1108 36.0927 76.3096 32.1302 73.8458 28.668L70.5868 30.9873ZM79.5907 19.7054L70.8086 28.4069L73.624 31.2484L82.4061 22.5469L79.5907 19.7054ZM79.5907 18.3238C79.9779 18.7075 79.9779 19.3218 79.5907 19.7054L82.4061 22.5469C84.3728 20.5982 84.3728 17.4311 82.406 15.4824L79.5907 18.3238ZM75.014 13.7891L79.5907 18.3238L82.406 15.4824L77.8294 10.9477L75.014 13.7891ZM73.5672 13.7891C73.9647 13.3953 74.6166 13.3953 75.014 13.7891L77.8294 10.9477C75.8729 9.00915 72.7084 9.00916 70.7519 10.9477L73.5672 13.7891ZM64.5026 22.7705L73.5672 13.7891L70.7519 10.9477L61.6873 19.9291L64.5026 22.7705ZM53.24 19.5323C56.4053 20.2236 59.3754 21.4302 62.0565 23.0591L64.1334 19.6406C61.0808 17.7859 57.6982 16.4116 54.0934 15.6244L53.24 19.5323ZM51.6667 5V17.5784H55.6667V5H51.6667ZM50.6667 4C51.219 4 51.6667 4.44772 51.6667 5H55.6667C55.6667 2.23858 53.4281 0 50.6667 0V4ZM44.1667 4H50.6667V0H44.1667V4ZM65.8333 47C65.8333 57.0505 57.6053 65.2294 47.4167 65.2294V69.2294C59.7796 69.2294 69.8333 59.2943 69.8333 47H65.8333ZM47.4167 28.7706C57.6053 28.7706 65.8333 36.9495 65.8333 47H69.8333C69.8333 34.7057 59.7796 24.7706 47.4167 24.7706V28.7706ZM29 47C29 36.9495 37.228 28.7706 47.4167 28.7706V24.7706C35.0537 24.7706 25 34.7057 25 47H29ZM47.4167 65.2294C37.228 65.2294 29 57.0505 29 47H25C25 59.2943 35.0537 69.2294 47.4167 69.2294V65.2294Z" fill="black" mask="url(#path-1-outside-1_314_8)"/>
</svg>
